<?xml version="1.0" standalone="no"?>
<!DOCTYPE svg PUBLIC "-//W3C//DTD SVG 20010904//EN"
 "http://www.w3.org/TR/2001/REC-SVG-20010904/DTD/svg10.dtd">
<svg version="1.0" xmlns="http://www.w3.org/2000/svg"
 width="256.000000pt" height="256.000000pt" viewBox="0 0 256.000000 256.000000"
 preserveAspectRatio="xMidYMid meet">
<metadata>
Created by potrace 1.11, written by Peter Selinger 2001-2013
</metadata>
<g transform="translate(0.000000,256.000000) scale(0.100000,-0.100000)"
fill="#000000" stroke="none">
<path d="M1635 2271 c-43 -19 -68 -59 -73 -116 -2 -30 -8 -55 -13 -55 -5 0
-32 -11 -60 -24 l-51 -25 -26 27 c-76 76 -180 58 -210 -36 l-14 -41 -436 -3
c-419 -3 -438 -4 -464 -23 -15 -11 -33 -36 -38 -55 -8 -24 -10 -265 -8 -743
l3 -709 36 -33 c27 -24 37 -43 42 -75 10 -80 -35 -75 640 -78 331 -1 612 0
624 3 26 6 53 52 53 89 0 17 13 38 38 60 l37 34 3 267 3 266 36 33 c31 28 37
40 41 89 2 32 9 57 14 57 6 0 32 11 58 24 l48 24 39 -34 c21 -19 45 -35 53
-36 56 -5 75 -3 103 16 44 30 64 87 48 133 -8 20 -26 48 -41 63 l-28 28 24 48
c13 27 24 55 24 62 0 7 15 12 39 12 88 0 136 43 136 122 0 40 -5 53 -32 79
-26 27 -41 33 -87 37 -35 3 -56 9 -56 17 0 6 -11 33 -24 59 l-24 48 33 35 c63
67 50 158 -28 197 -50 24 -91 16 -140 -28 l-39 -34 -48 24 c-26 13 -52 24 -58
24 -5 0 -12 25 -14 56 -4 45 -10 61 -35 85 -32 33 -91 46 -128 30z m73 -83 c7
-7 12 -40 12 -79 l0 -68 58 -16 c136 -40 248 -151 287 -287 l16 -58 70 0 c64
0 70 -2 81 -25 18 -41 -3 -55 -83 -55 l-68 0 -12 -42 c-39 -147 -150 -262
-291 -303 l-58 -16 0 -60 c0 -68 -12 -99 -38 -99 -32 0 -42 22 -42 92 l0 67
-42 12 c-150 39 -273 163 -308 307 l-11 42 -60 0 c-68 0 -99 12 -99 38 0 32
22 42 91 42 68 0 79 6 79 46 0 31 55 130 97 175 58 62 123 103 196 124 l57 16
0 68 c0 68 10 91 40 91 9 0 21 -5 28 -12z m-363 -161 l26 -22 -25 -30 -25 -29
-26 24 c-29 27 -31 42 -9 64 20 21 28 20 59 -7z m727 6 c24 -22 23 -35 -7 -63
l-25 -23 -26 27 -27 26 23 25 c28 29 37 31 62 8z m-822 -133 c16 -19 16 -22
-6 -67 -13 -25 -24 -52 -24 -58 0 -8 -21 -14 -56 -17 -46 -4 -61 -10 -87 -37
-27 -27 -32 -39 -32 -81 0 -42 5 -54 32 -81 26 -27 41 -33 87 -37 35 -3 56 -9
56 -17 0 -6 11 -33 24 -59 l24 -48 -33 -33 c-77 -80 -38 -201 67 -210 42 -3
65 6 105 43 l32 30 48 -24 c26 -13 53 -24 59 -24 7 0 14 -24 16 -57 4 -49 9
-60 41 -90 l37 -33 0 -248 c0 -180 -3 -251 -12 -260 -17 -17 -1279 -17 -1296
0 -17 17 -17 1399 0 1416 9 9 124 12 456 12 432 0 445 -1 462 -20z m96 -595
c23 -21 25 -27 14 -40 -33 -39 -74 -41 -86 -3 -4 13 2 28 17 44 12 13 24 24
25 24 2 0 15 -11 30 -25z m721 3 c27 -25 29 -41 8 -61 -17 -18 -47 -12 -69 12
-14 16 -14 20 6 44 26 33 26 32 55 5z m-507 -928 c0 -20 -7 -20 -580 -20 -573
0 -580 0 -580 20 0 20 7 20 580 20 573 0 580 0 580 -20z"/>
<path d="M1580 1943 c-83 -29 -151 -89 -192 -173 -32 -65 -32 -195 1 -262 95
-195 345 -247 502 -106 171 154 131 429 -76 527 -63 30 -170 36 -235 14z m202
-87 c88 -43 132 -117 132 -221 0 -62 -3 -75 -33 -120 -52 -80 -119 -115 -212
-111 -89 3 -166 54 -206 135 -21 43 -25 127 -10 179 14 47 101 134 147 149 51
15 139 10 182 -11z"/>
<path d="M1620 1789 c-127 -51 -131 -234 -6 -293 103 -49 218 23 223 140 1 45
-3 59 -28 94 -45 62 -121 86 -189 59z"/>
<path d="M555 1631 c-45 -20 -70 -60 -70 -112 0 -42 5 -53 33 -81 28 -28 39
-33 82 -33 43 0 54 5 82 33 28 28 33 39 33 82 0 42 -5 54 -31 81 -33 33 -92
46 -129 30z m66 -81 c43 -24 9 -82 -36 -62 -27 12 -33 40 -13 60 15 15 24 15
49 2z"/>
<path d="M800 1560 l0 -40 100 0 100 0 0 40 0 40 -100 0 -100 0 0 -40z"/>
<path d="M800 1440 l0 -40 100 0 100 0 0 40 0 40 -100 0 -100 0 0 -40z"/>
<path d="M550 1309 c-40 -16 -65 -58 -65 -111 0 -40 5 -53 33 -80 28 -28 39
-33 82 -33 42 0 54 5 80 30 95 95 -4 242 -130 194z m71 -79 c27 -15 24 -48 -6
-62 -41 -19 -75 28 -43 60 15 15 24 15 49 2z"/>
<path d="M800 1280 l0 -40 160 0 160 0 0 40 0 40 -160 0 -160 0 0 -40z"/>
<path d="M800 1120 l0 -40 160 0 160 0 0 40 0 40 -160 0 -160 0 0 -40z"/>
<path d="M555 991 c-74 -33 -96 -133 -41 -190 35 -36 81 -48 128 -32 47 16 73
56 73 113 0 40 -5 53 -31 79 -33 33 -92 46 -129 30z m77 -96 c17 -37 -10 -64
-47 -47 -27 12 -33 40 -13 60 20 20 48 14 60 -13z"/>
<path d="M800 960 l0 -40 340 0 340 0 0 40 0 40 -340 0 -340 0 0 -40z"/>
<path d="M800 800 l0 -40 340 0 340 0 0 40 0 40 -340 0 -340 0 0 -40z"/>
</g>
</svg>
